<svg width="200" height="200" viewBox="0 0 200 200" xmlns="http://www.w3.org/2000/svg">
  <!-- Background circle -->
  <circle cx="100" cy="100" r="90" fill="#f8fafc" stroke="#e2e8f0" stroke-width="2"/>
  
  <!-- Monitor/Code editor -->
  <rect x="40" y="60" width="120" height="80" rx="6" fill="#1f2937" stroke="#374151" stroke-width="2"/>
  <rect x="45" y="65" width="110" height="65" fill="#111827"/>
  
  <!-- Code lines -->
  <line x1="55" y1="80" x2="95" y2="80" stroke="#3b82f6" stroke-width="2"/>
  <line x1="65" y1="90" x2="120" y2="90" stroke="#10b981" stroke-width="2"/>
  <line x1="55" y1="100" x2="85" y2="100" stroke="#f59e0b" stroke-width="2"/>
  <line x1="75" y1="110" x2="130" y2="110" stroke="#8b5cf6" stroke-width="2"/>
  <line x1="55" y1="120" x2="105" y2="120" stroke="#ef4444" stroke-width="2"/>
  
  <!-- TypeScript logo-inspired brackets -->
  <text x="60" y="85" fill="#3b82f6" font-family="Monaco, monospace" font-size="12" font-weight="bold">{</text>
  <text x="125" y="125" fill="#3b82f6" font-family="Monaco, monospace" font-size="12" font-weight="bold">}</text>
  
  <!-- TypeScript 'TS' badge -->
  <rect x="125" y="70" width="20" height="15" rx="3" fill="#3178c6"/>
  <text x="135" y="81" text-anchor="middle" fill="#ffffff" font-family="Arial, sans-serif" font-size="10" font-weight="bold">TS</text>
  
  <!-- Monitor stand -->
  <rect x="90" y="140" width="20" height="10" fill="#6b7280"/>
  <rect x="75" y="150" width="50" height="5" rx="2" fill="#9ca3af"/>
  
  <!-- Developer elements -->
  <circle cx="170" cy="50" r="8" fill="#22c55e"/>
  <text x="170" y="55" text-anchor="middle" fill="#ffffff" font-family="Arial, sans-serif" font-size="10" font-weight="bold">✓</text>
  
  <!-- Label -->
  <text x="100" y="185" text-anchor="middle" fill="#374151" font-family="Arial, sans-serif" font-size="10">Developer First</text>
</svg>